<?xml version="1.0" standalone="no"?>
<!DOCTYPE svg PUBLIC "-//W3C//DTD SVG 20010904//EN"
 "http://www.w3.org/TR/2001/REC-SVG-20010904/DTD/svg10.dtd">
<svg version="1.0" xmlns="http://www.w3.org/2000/svg"
 width="320.000000pt" height="320.000000pt" viewBox="0 0 320.000000 320.000000"
 preserveAspectRatio="xMidYMid meet">

<g transform="translate(0.000000,320.000000) scale(0.100000,-0.100000)"
fill="#000000" stroke="none">
<path d="M1561 3159 c-71 -12 -215 -61 -307 -103 -347 -161 -597 -535 -620
-931 -6 -85 -3 -112 16 -183 22 -81 22 -83 4 -103 -18 -20 -18 -21 0 -35 13
-9 24 -10 37 -4 9 6 24 7 32 4 8 -3 18 -1 22 5 11 19 62 12 182 -24 64 -20
131 -36 149 -37 60 -2 157 80 194 165 17 39 21 65 20 150 -2 81 2 114 19 162
63 175 159 304 271 364 l61 33 47 -17 c26 -9 56 -17 66 -18 29 -3 31 21 2 34
-41 19 -31 32 17 25 54 -9 108 -47 152 -107 51 -69 72 -124 84 -218 19 -149
-5 -243 -86 -342 -61 -73 -112 -108 -234 -158 -190 -78 -350 -187 -412 -281
-28 -44 -48 -169 -54 -347 -4 -127 -3 -176 6 -187 19 -23 103 -29 218 -16 85
10 135 10 245 -1 149 -14 188 -7 188 30 0 11 -9 56 -19 101 -11 44 -25 122
-31 173 -15 116 -4 162 50 221 52 56 113 88 243 125 135 39 193 68 241 122 49
54 77 115 120 267 99 342 107 514 34 727 -38 112 -46 127 -102 202 -83 110
-148 138 -416 179 -186 28 -359 38 -439 23z m434 -92 c205 -57 259 -90 342
-206 86 -119 113 -243 113 -517 0 -255 -45 -414 -148 -526 -62 -66 -126 -103
-242 -138 -97 -29 -142 -52 -196 -102 -97 -90 -125 -224 -85 -417 12 -57 19
-106 17 -108 -2 -2 -55 3 -117 12 -95 13 -133 14 -232 4 -65 -6 -121 -9 -123
-6 -3 3 -8 83 -11 179 -6 184 1 235 37 281 20 25 152 105 312 187 49 25 138
80 199 123 129 92 155 126 200 267 28 85 30 105 27 196 -3 89 -7 108 -36 166
-68 138 -167 220 -301 249 -72 15 -201 -4 -281 -42 -73 -34 -164 -121 -208
-199 -29 -50 -32 -63 -32 -141 0 -49 -7 -108 -16 -140 -9 -30 -26 -101 -38
-158 l-21 -105 -106 -22 c-58 -12 -144 -25 -190 -29 -128 -10 -124 -19 -122
216 1 256 25 351 131 506 40 58 172 192 247 250 119 91 316 186 478 229 120
32 266 28 402 -9z m-581 -511 c-38 -41 -85 -102 -103 -136 -35 -66 -50 -74
-31 -16 17 53 93 151 147 191 27 19 50 35 53 35 3 0 -27 -33 -66 -74z m-274
-676 c0 -5 -15 -10 -32 -9 -31 1 -32 1 -8 9 35 11 40 11 40 0z m-76 -67 c61
-5 67 -8 51 -20 -25 -17 -38 -16 -110 6 -66 21 -52 25 59 14z"/>
<path d="M1348 2930 c-42 -15 -103 -45 -135 -67 -58 -38 -195 -169 -213 -203
-25 -46 14 -21 105 68 106 102 175 146 280 178 71 21 86 31 65 44 -19 12 -13
14 -102 -20z"/>
<path d="M2290 2028 c-14 -18 -42 -59 -63 -90 -27 -40 -57 -69 -104 -98 -45
-29 -62 -45 -55 -52 20 -20 65 3 133 68 77 75 154 204 121 204 -5 0 -19 -15
-32 -32z"/>
<path d="M1380 1142 c0 -17 12 -20 106 -25 109 -7 124 -5 124 17 0 17 -53 26
-152 26 -69 0 -78 -2 -78 -18z"/>
<path d="M1940 1355 c0 -8 -6 -15 -14 -15 -46 0 -27 -269 21 -287 23 -9 23 -1
7 80 -15 74 -11 164 11 220 5 12 2 17 -9 17 -9 0 -16 -7 -16 -15z"/>
<path d="M1475 761 c-94 -23 -187 -104 -246 -213 -31 -58 -34 -70 -34 -153 0
-82 3 -96 33 -157 39 -79 90 -128 182 -172 58 -28 74 -31 155 -30 105 0 175
23 250 81 58 44 119 136 135 204 49 204 -104 412 -310 423 -36 1 -75 8 -87 14
-24 13 -34 13 -78 3z m190 -61 c25 -6 20 -8 -28 -9 -37 -1 -56 3 -52 9 7 11
36 11 80 0z m-14 -54 c139 -8 231 -75 244 -179 9 -69 -1 -129 -30 -187 -30
-58 -57 -83 -128 -116 -132 -60 -224 -69 -305 -28 -82 41 -132 117 -132 201 0
78 54 217 110 285 30 37 30 37 98 33 37 -3 101 -7 143 -9z m-311 -72 c-28 -45
-64 -140 -73 -194 -3 -16 -5 -10 -6 16 -1 54 22 118 64 177 45 60 53 61 15 1z"/>
<path d="M1590 595 c0 -8 9 -15 20 -15 64 0 131 -53 146 -116 12 -49 44 -55
44 -8 0 31 -21 72 -52 101 -49 46 -158 72 -158 38z"/>
<path d="M1356 343 c-26 -27 17 -107 70 -129 35 -15 86 -19 97 -7 14 13 -17
33 -50 33 -40 0 -93 45 -93 79 0 21 -13 35 -24 24z"/>
</g>
</svg>
